<?xml version="1.0" standalone="no"?>
<!DOCTYPE svg PUBLIC "-//W3C//DTD SVG 20010904//EN"
 "http://www.w3.org/TR/2001/REC-SVG-20010904/DTD/svg10.dtd">
<svg version="1.0" xmlns="http://www.w3.org/2000/svg"
 width="600.000000pt" height="600.000000pt" viewBox="0 0 600.000000 600.000000"
 preserveAspectRatio="xMidYMid meet">
<metadata>
Created by potrace 1.16, written by Peter Selinger 2001-2019
</metadata>
<g transform="translate(0.000000,600.000000) scale(0.100000,-0.100000)"
fill="#000000" stroke="none">
<path d="M3190 5029 c-115 -13 -225 -38 -283 -63 -29 -13 -70 -26 -91 -30 -64
-12 -137 -55 -196 -115 -31 -31 -88 -82 -128 -114 -39 -32 -82 -72 -96 -90
-38 -51 -193 -363 -201 -404 -4 -21 -17 -63 -30 -93 -32 -77 -55 -195 -55
-288 0 -49 -6 -96 -16 -123 -12 -32 -18 -90 -22 -206 l-4 -163 -58 -57 c-31
-32 -83 -81 -116 -109 -43 -37 -72 -75 -105 -135 -26 -46 -60 -109 -77 -140
-17 -30 -39 -84 -47 -120 -9 -35 -25 -86 -35 -114 -29 -77 -31 -100 -20 -171
13 -81 69 -232 107 -287 15 -23 65 -79 111 -124 115 -115 180 -145 367 -172
152 -23 276 -26 370 -11 33 5 150 14 260 19 228 11 343 32 505 90 115 42 262
82 384 105 52 10 111 31 170 61 95 48 120 64 315 210 66 50 153 112 193 138
40 27 96 66 123 88 28 21 77 48 110 59 68 23 141 73 178 122 14 18 50 78 80
133 30 55 65 120 79 145 14 25 29 62 32 82 8 42 -14 177 -44 283 -12 43 -20
100 -20 150 0 44 -7 127 -15 185 -8 58 -20 148 -25 201 -12 119 -25 156 -98
284 -31 55 -68 120 -81 145 -13 25 -43 73 -67 105 -24 33 -61 85 -83 116 -22
31 -74 92 -115 136 -171 181 -397 246 -956 273 -118 5 -217 9 -220 9 -3 -1
-39 -5 -80 -10z m345 -299 c336 -16 497 -47 628 -117 31 -18 66 -51 105 -101
31 -41 76 -98 99 -127 23 -29 65 -95 94 -147 28 -51 68 -122 89 -158 31 -53
39 -79 45 -140 3 -41 11 -95 16 -120 6 -25 14 -117 19 -205 6 -122 14 -182 33
-250 43 -157 44 -148 -17 -260 -76 -139 -77 -140 -157 -170 -43 -17 -105 -53
-155 -91 -46 -34 -120 -87 -166 -116 -46 -30 -117 -81 -158 -112 -161 -124
-194 -147 -253 -176 -34 -17 -98 -37 -143 -44 -99 -18 -213 -48 -324 -88 -194
-69 -242 -79 -455 -89 -110 -5 -227 -13 -261 -19 -135 -22 -415 -1 -472 36
-15 10 -54 45 -88 78 -50 51 -65 74 -89 139 l-28 78 22 67 c12 37 26 86 31
108 6 23 21 58 35 79 14 20 39 62 54 93 35 69 186 212 223 212 30 0 75 30 98
66 17 25 18 45 13 238 -5 185 -4 216 11 251 12 27 20 84 25 175 6 106 12 146
30 185 12 27 26 70 32 95 5 25 42 110 82 188 59 117 81 151 119 183 l47 40 57
-88 c32 -48 69 -106 83 -128 49 -78 105 -99 137 -50 15 23 15 27 0 50 -9 14
-21 25 -26 25 -5 0 -27 30 -49 68 -22 37 -58 94 -80 126 l-39 59 20 28 c24 32
28 34 123 65 39 12 89 29 113 38 91 34 194 40 477 26z"/>
<path d="M3985 4471 c-33 -15 -130 -61 -215 -103 -216 -106 -223 -108 -401
-108 -84 0 -159 -5 -170 -10 -12 -7 -19 -21 -19 -40 0 -19 7 -33 19 -40 11 -6
90 -10 183 -10 197 0 213 5 450 122 88 44 171 83 184 88 55 21 104 60 104 83
0 53 -43 59 -135 18z"/>
<path d="M3046 4115 c-17 -18 -19 -24 -42 -130 -13 -60 -19 -162 -26 -400 -4
-176 -11 -359 -14 -407 -5 -85 -5 -87 20 -103 24 -16 28 -16 50 -1 31 19 33
47 45 481 7 273 12 336 31 428 22 103 22 108 5 127 -22 24 -48 26 -69 5z"/>
<path d="M2418 3059 c-11 -6 -18 -22 -18 -39 0 -40 45 -72 235 -165 154 -76
256 -109 430 -139 184 -32 589 -46 710 -25 177 30 227 41 296 62 87 26 109 40
109 71 0 53 -43 58 -170 22 -214 -61 -376 -75 -650 -57 -387 25 -577 82 -861
259 -40 24 -55 26 -81 11z"/>
</g>
</svg>
