<?xml version="1.0" encoding="utf-8"?>
<!-- Svg Vector Icons : http://www.onlinewebfonts.com/icon -->
<!DOCTYPE svg PUBLIC "-//W3C//DTD SVG 1.1//EN" "http://www.w3.org/Graphics/SVG/1.1/DTD/svg11.dtd">
<svg version="1.1" xmlns="http://www.w3.org/2000/svg" xmlns:xlink="http://www.w3.org/1999/xlink" x="0px" y="0px" viewBox="0 0 1000 1000" enable-background="new 0 0 1000 1000" xml:space="preserve">
<metadata> Svg Vector Icons : http://www.onlinewebfonts.com/icon </metadata>
<g><path d="M500,606.1c122,0,224.2-41.4,230.4-95.6c-18.2-50.8-38-106.4-57.4-160.9c-13.5,38.8-88,66.4-172.9,66.4s-159.5-27.6-172.9-66.4c-19.4,54.5-39.3,110-57.4,160.9C275.9,564.7,378,606.1,500,606.1z M500,263.9c57.4,0,110.6-17.8,126.2-45.4c-21.5-60.3-39.9-112.1-51.6-144.8c-7.8-21.8-42.9-33.1-74.6-33.1s-66.9,11.3-74.6,33.1c-11.6,32.6-30.1,84.4-51.6,144.8C389.4,246.1,442.7,263.9,500,263.9z M948.1,656.5l-191.7-77.3l22.1,61.6c-1.1,65.3-127.8,117.3-278.6,117.3c-150.7,0-277.5-52-278.6-117.3l22.1-61.6L51.8,656.5c-53.7,21.6-56,61.7-5,89l360.5,193.3c50.9,27.3,134.4,27.3,185.4,0l360.5-193.3C1004.2,718.3,1001.9,678.2,948.1,656.5z"/></g>
</svg>